<?xml version="1.0" encoding="utf-8"?>
<!-- Generator: Adobe Illustrator 16.0.0, SVG Export Plug-In . SVG Version: 6.00 Build 0)  -->
<!DOCTYPE svg PUBLIC "-//W3C//DTD SVG 1.1//EN" "http://www.w3.org/Graphics/SVG/1.1/DTD/svg11.dtd">
<svg version="1.1" id="Layer_1" xmlns="http://www.w3.org/2000/svg" xmlns:xlink="http://www.w3.org/1999/xlink" x="0px" y="0px"
	 width="1005.717px" height="316.156px" viewBox="0 0 1005.717 316.156" enable-background="new 0 0 1005.717 316.156"
	 xml:space="preserve">
<g>
	<path fill-rule="evenodd" clip-rule="evenodd" fill="#EE2631" d="M4.649,2.858h998.209v310.439H2.932V8.005
		C2.787,5.571,2.653,3.151,4.649,2.858"/>
	<path fill="none" stroke="#000000" stroke-width="5.7164" d="M4.649,2.858h998.209v310.439H2.932V8.005
		C2.787,5.571,2.653,3.151,4.649,2.858z"/>
	<path fill="#F8DF20" d="M24.973,32.483H976.87v257.275H23.256V37.63C23.116,35.201,22.973,32.771,24.973,32.483"/>
	<path fill="none" stroke="#000000" stroke-width="5.7164" d="M24.973,32.483H976.87v257.275H23.256V37.63
		C23.116,35.201,22.973,32.771,24.973,32.483z"/>
	<path d="M893.573,182.378c-11.68,15.48,2.857,44.068,26.082,44.068c17.177,0,31.151-11.079,30.971-36.085
		c-0.248-31.925-36.934-42.406-36.934-57.291c0-13.73,20.967-9.293,18.947,4.046c4.373,0.338,10.479,0.953,10.479,0.953
		s5.717-39.982-20.252-39.541c-18.576,0.317-33.485,17.719-33.58,34.18c-0.238,38.477,41.849,32.599,41.687,55.624
		c-0.124,16.318-22.748,12.746-23.11-5.716C901.194,182.617,900.241,182.103,893.573,182.378"/>
	<path fill="none" stroke="#231F20" stroke-width="2.8582" stroke-linecap="round" stroke-linejoin="round" d="M893.573,182.378
		c-11.68,15.48,2.857,44.068,26.082,44.068c17.177,0,31.151-11.079,30.971-36.085c-0.248-31.925-36.934-42.406-36.934-57.291
		c0-13.73,20.967-9.293,18.947,4.046c4.373,0.338,10.479,0.953,10.479,0.953s5.717-39.982-20.252-39.541
		c-18.576,0.317-33.485,17.719-33.58,34.18c-0.238,38.477,41.849,32.599,41.687,55.624c-0.124,16.318-22.748,12.746-23.11-5.716
		C901.194,182.617,900.241,182.103,893.573,182.378z"/>
	<path fill="#EE2631" d="M904.29,176.978c-11.67,15.479,2.858,44.067,26.083,44.067c17.175,0,31.16-11.078,30.97-36.085
		c-0.238-31.922-36.924-42.409-36.924-57.296c0-13.725,20.958-9.29,18.938,4.053c4.372,0.332,10.479,0.951,10.479,0.951
		s5.716-39.984-20.253-39.542c-18.576,0.313-33.475,17.722-33.58,34.183c-0.238,38.465,41.849,32.587,41.688,55.622
		c-0.114,16.318-22.749,12.745-23.111-5.717C911.91,177.215,910.958,176.701,904.29,176.978"/>
	<path fill="none" stroke="#231F20" stroke-width="2.8582" stroke-linecap="round" stroke-linejoin="round" d="M904.29,176.978
		c-11.67,15.479,2.858,44.067,26.083,44.067c17.175,0,31.16-11.078,30.97-36.085c-0.238-31.922-36.924-42.409-36.924-57.296
		c0-13.725,20.958-9.29,18.938,4.053c4.372,0.332,10.479,0.951,10.479,0.951s5.716-39.984-20.253-39.542
		c-18.576,0.313-33.475,17.722-33.58,34.183c-0.238,38.465,41.849,32.587,41.688,55.622c-0.114,16.318-22.749,12.745-23.111-5.717
		C911.91,177.215,910.958,176.701,904.29,176.978z"/>
	<path d="M839.292,135.493c0.115-12.027,18.7-26.207,19.776,0.362C859.974,158.413,839.12,152.883,839.292,135.493 M880.265,222.684
		l-19.063-54.07c0,0,20.854-7.917,21.206-37.284c0.477-39.308-39.544-34.787-61.34-28.354
		c-1.077,24.777-1.905,121.376-1.905,121.376l17.747-1.667l2.382-45.507l19.776,46.336L880.265,222.684z"/>
	<path fill="none" stroke="#231F20" stroke-width="2.8582" stroke-linecap="round" stroke-linejoin="round" d="M839.292,135.493
		c0.115-12.027,18.7-26.207,19.776,0.362C859.974,158.413,839.12,152.883,839.292,135.493z M880.265,222.684l-19.063-54.07
		c0,0,20.854-7.917,21.206-37.284c0.477-39.308-39.544-34.787-61.34-28.354c-1.077,24.777-1.905,121.376-1.905,121.376l17.747-1.667
		l2.382-45.507l19.776,46.336L880.265,222.684z"/>
	<path fill="#EE2631" d="M850.095,130.406c0.124-12.034,18.7-26.202,19.776,0.36C870.776,153.329,849.924,147.798,850.095,130.406
		 M891.067,217.597l-19.062-54.081c0,0,20.853-7.909,21.215-37.276c0.466-39.308-39.554-34.778-61.34-28.348
		c-1.086,24.778-1.915,121.372-1.915,121.372l17.747-1.667l2.382-45.507l19.776,46.336L891.067,217.597z"/>
	<path fill="none" stroke="#231F20" stroke-width="2.8582" stroke-linecap="round" stroke-linejoin="round" d="M850.095,130.406
		c0.124-12.034,18.7-26.202,19.776,0.36C870.776,153.329,849.924,147.798,850.095,130.406z M891.067,217.597l-19.062-54.081
		c0,0,20.853-7.909,21.215-37.276c0.466-39.308-39.554-34.778-61.34-28.348c-1.086,24.778-1.915,121.372-1.915,121.372l17.747-1.667
		l2.382-45.507l19.776,46.336L891.067,217.597z"/>
	<polygon points="800.082,100.605 752.079,100.489 746.011,223.542 800.911,223.542 801.035,200.441 774.237,198.925 
		774.647,174.234 797.338,172.929 797.7,145.755 777.209,145.638 777.209,121.089 799.845,120.973 	"/>
	<polygon fill="none" stroke="#231F20" stroke-width="2.8582" stroke-linecap="round" points="800.082,100.605 752.079,100.489 
		746.011,223.542 800.911,223.542 801.035,200.441 774.237,198.925 774.647,174.234 797.338,172.929 797.7,145.755 777.209,145.638 
		777.209,121.089 799.845,120.973 	"/>
	<polygon fill="#EE2631" points="811.504,94.553 763.511,94.437 757.434,217.473 812.342,217.473 812.456,194.363 785.659,192.858 
		786.078,168.166 808.761,166.851 809.122,139.696 788.632,139.58 788.632,115.04 811.275,114.923 	"/>
	<polygon fill="none" stroke="#231F20" stroke-width="2.8582" stroke-linecap="round" points="811.504,94.553 763.511,94.437 
		757.434,217.473 812.342,217.473 812.456,194.363 785.659,192.858 786.078,168.166 808.761,166.851 809.122,139.696 
		788.632,139.58 788.632,115.04 811.275,114.923 	"/>
	<path d="M736.828,154.107c0,0-2.153,29.777-2.306,50.267c-7.469,22.148-57.968,29.779-62.73,6.383
		c-0.477-14.479-2.829-86.665-2.829-86.665s0.123-29.86,36.714-30.015c42.43-0.176,26.53,39.487,26.53,39.487
		s-10.897,1.062-18.042,0.536c2.677-20.367-18.938-19.655-21.797-9.114c-1.381,17.752-4.381,52.44-4.115,69.32
		c6.174,15.729,28.941,11.976,29.751-4.943c0.182-6.04,0.238-14.767,0.238-14.767l-14.051,0.239l-0.239-17.986L736.828,154.107z"/>
	<path fill="none" stroke="#231F20" stroke-width="2.8582" stroke-linecap="round" stroke-linejoin="round" d="M736.828,154.107
		c0,0-2.153,29.777-2.306,50.267c-7.469,22.148-57.968,29.779-62.73,6.383c-0.477-14.479-2.829-86.665-2.829-86.665
		s0.123-29.86,36.714-30.015c42.43-0.176,26.53,39.487,26.53,39.487s-10.897,1.062-18.042,0.536
		c2.677-20.367-18.938-19.655-21.797-9.114c-1.381,17.752-4.381,52.44-4.115,69.32c6.174,15.729,28.941,11.976,29.751-4.943
		c0.182-6.04,0.238-14.767,0.238-14.767l-14.051,0.239l-0.239-17.986L736.828,154.107z"/>
	<path fill="#EE2631" d="M746.83,148.391c0,0-2.144,29.777-2.305,50.268c-7.469,22.148-57.968,29.771-62.731,6.383
		c-0.476-14.489-2.829-86.662-2.829-86.662s0.124-29.863,36.715-30.02c42.43-0.176,26.53,39.489,26.53,39.489
		s-10.898,1.062-18.043,0.536c2.678-20.369-18.938-19.655-21.796-9.117c-1.382,17.755-4.373,52.442-4.115,69.322
		c6.173,15.729,28.95,11.975,29.76-4.944c0.172-6.039,0.229-14.765,0.229-14.765l-14.052,0.238l-0.238-17.986L746.83,148.391z"/>
	<path fill="none" stroke="#231F20" stroke-width="2.8582" stroke-linecap="round" stroke-linejoin="round" d="M746.83,148.391
		c0,0-2.144,29.777-2.305,50.268c-7.469,22.148-57.968,29.771-62.731,6.383c-0.476-14.489-2.829-86.662-2.829-86.662
		s0.124-29.863,36.715-30.02c42.43-0.176,26.53,39.489,26.53,39.489s-10.898,1.062-18.043,0.536
		c2.678-20.369-18.938-19.655-21.796-9.117c-1.382,17.755-4.373,52.442-4.115,69.322c6.173,15.729,28.95,11.975,29.76-4.944
		c0.172-6.039,0.229-14.765,0.229-14.765l-14.052,0.238l-0.238-17.986L746.83,148.391z"/>
	<path d="M611.672,145.122l-0.896-23.763c0,0,18.938-9.105,18.938,11.798C629.714,150.316,611.672,145.122,611.672,145.122
		 M654.606,220.027l-19.062-47.164c0,0,18.471-14.69,18.824-44.058c0.476-39.305-49.07-40.975-59.426-29.06
		c-1.077,24.773-5.61,128.388-5.61,128.388l16.204-1.667l5.239-55.023l22.387,51.213L654.606,220.027z"/>
	<path fill="none" stroke="#231F20" stroke-width="2.8582" stroke-linecap="round" stroke-linejoin="round" d="M611.672,145.122
		l-0.896-23.763c0,0,18.938-9.105,18.938,11.798C629.714,150.316,611.672,145.122,611.672,145.122z M654.606,220.027l-19.062-47.164
		c0,0,18.471-14.69,18.824-44.058c0.476-39.305-49.07-40.975-59.426-29.06c-1.077,24.773-5.61,128.388-5.61,128.388l16.204-1.667
		l5.239-55.023l22.387,51.213L654.606,220.027z"/>
	<path fill="#EE2631" d="M622.427,139.46l-0.896-23.764c0,0,18.938-9.111,18.938,11.794
		C640.47,144.648,622.427,139.46,622.427,139.46 M665.361,214.377L646.3,167.204c0,0,18.462-14.697,18.824-44.064
		c0.466-39.303-49.07-40.97-59.435-29.065c-1.076,24.778-5.602,128.4-5.602,128.4l16.204-1.668l5.239-55.023l22.387,51.213
		L665.361,214.377z"/>
	<path fill="none" stroke="#231F20" stroke-width="2.8582" stroke-linecap="round" stroke-linejoin="round" d="M622.427,139.46
		l-0.896-23.764c0,0,18.938-9.111,18.938,11.794C640.47,144.648,622.427,139.46,622.427,139.46z M665.361,214.377L646.3,167.204
		c0,0,18.462-14.697,18.824-44.064c0.466-39.303-49.07-40.97-59.435-29.065c-1.076,24.778-5.602,128.4-5.602,128.4l16.204-1.668
		l5.239-55.023l22.387,51.213L665.361,214.377z"/>
	<path d="M538.5,101.268l-15.899,0.176c0,0-6.801,97.425-5.191,106.246c1.62,8.831,10.403,24.691,27.045,25.025
		c16.643,0.334,29.932-15.737,31.923-27.808c1.981-12.069,2.857-104,2.857-104l-18.757,0.722c0,0-1.076,89.704-2.543,96.782
		c-3.002,15.604-20.148,17.214-23.901,1.677C533.489,195.258,538.5,101.268,538.5,101.268"/>
	<path fill="none" stroke="#231F20" stroke-width="2.8582" stroke-linecap="round" stroke-linejoin="round" d="M538.5,101.268
		l-15.899,0.176c0,0-6.801,97.425-5.191,106.246c1.62,8.831,10.403,24.691,27.045,25.025c16.643,0.334,29.932-15.737,31.923-27.808
		c1.981-12.069,2.857-104,2.857-104l-18.757,0.722c0,0-1.076,89.704-2.543,96.782c-3.002,15.604-20.148,17.214-23.901,1.677
		C533.489,195.258,538.5,101.268,538.5,101.268z"/>
	<path fill="#EE2631" d="M547.922,93.899l-15.899,0.176c0,0-6.792,97.411-5.183,106.232c1.61,8.831,10.403,24.692,27.036,25.025
		c16.642,0.334,29.931-15.737,31.923-27.808c1.981-12.069,2.857-103.986,2.857-103.986l-18.757,0.722c0,0-1.077,89.69-2.544,96.768
		c-3,15.604-20.148,17.214-23.901,1.676C542.921,187.875,547.922,93.899,547.922,93.899"/>
	<path fill="none" stroke="#231F20" stroke-width="2.8582" stroke-linecap="round" stroke-linejoin="round" d="M547.922,93.899
		l-15.899,0.176c0,0-6.792,97.411-5.183,106.232c1.61,8.831,10.403,24.692,27.036,25.025c16.642,0.334,29.931-15.737,31.923-27.808
		c1.981-12.069,2.857-103.986,2.857-103.986l-18.757,0.722c0,0-1.077,89.69-2.544,96.768c-3,15.604-20.148,17.214-23.901,1.676
		C542.921,187.875,547.922,93.899,547.922,93.899z"/>
	<path d="M426.681,230.83c0,0,0.572-139.148,0.469-158.281c80.78-33.713,76.853,66.698,53.369,77.296
		c19.667,6.432,30.032,52.997-3.101,79.908C472.057,229.752,426.681,230.83,426.681,230.83 M453.005,190.094
		c35.616,3.573,20.365-37.747-0.36-24.415C452.585,171.7,452.929,184.189,453.005,190.094 M453.836,132.218
		c38.839-2.503,9.769-43.835-3.453-25.728C450.323,112.508,449.546,118.16,453.836,132.218"/>
	<path fill="none" stroke="#000000" stroke-width="2.8582" stroke-linecap="square" stroke-linejoin="round" d="M426.681,230.83
		c0,0,0.572-139.148,0.469-158.281c80.78-33.713,76.853,66.698,53.369,77.296c19.667,6.432,30.032,52.997-3.101,79.908
		C472.057,229.752,426.681,230.83,426.681,230.83z M453.005,190.094c35.616,3.573,20.365-37.747-0.36-24.415
		C452.585,171.7,452.929,184.189,453.005,190.094z M453.836,132.218c38.839-2.503,9.769-43.835-3.453-25.728
		C450.323,112.508,449.546,118.16,453.836,132.218z"/>
	<path fill="#EE2631" d="M435.727,225.571c0,0,0.569-139.155,0.467-158.289c80.758-33.713,76.834,66.699,53.368,77.296
		c19.646,6.435,30.01,53.004-3.101,79.925C481.1,224.503,435.727,225.571,435.727,225.571 M462.05,184.836
		c35.604,3.572,20.362-37.755-0.362-24.416C461.631,166.432,461.972,178.94,462.05,184.836 M462.878,126.953
		c38.829-2.503,9.769-43.835-3.453-25.728C459.366,107.243,458.592,112.896,462.878,126.953"/>
	<path fill="none" stroke="#000000" stroke-width="2.8582" stroke-linecap="square" stroke-linejoin="round" d="M435.727,225.571
		c0,0,0.569-139.155,0.467-158.289c80.758-33.713,76.834,66.699,53.368,77.296c19.646,6.435,30.01,53.004-3.101,79.925
		C481.1,224.503,435.727,225.571,435.727,225.571z M462.05,184.836c35.604,3.572,20.362-37.755-0.362-24.416
		C461.631,166.432,461.972,178.94,462.05,184.836z M462.878,126.953c38.829-2.503,9.769-43.835-3.453-25.728
		C459.366,107.243,458.592,112.896,462.878,126.953z"/>
	<path d="M328.737,198.334c0.005,17.586,7.257,40.668,27.874,39.84c17.862-0.715,36.329-16.909,36.329-46.212
		c0-34.154-42.035-28.622-45.307-49.737c-2.098-13.563,17.374-14.637,18.859-4.454c4.375,0.336,14.589,0.181,14.589,0.181
		s2.565-34.211-23.401-33.765c-18.579,0.316-29.255,19.645-28.407,36.087c2.146,41.628,42.092,29.958,41.668,52.992
		c-0.4,21.567-26.724,31.151-25.766,4.706C338.506,197.973,335.408,198.059,328.737,198.334"/>
	<path fill="none" stroke="#231F20" stroke-width="2.8582" stroke-linecap="round" stroke-linejoin="round" d="M328.737,198.334
		c0.005,17.586,7.257,40.668,27.874,39.84c17.862-0.715,36.329-16.909,36.329-46.212c0-34.154-42.035-28.622-45.307-49.737
		c-2.098-13.563,17.374-14.637,18.859-4.454c4.375,0.336,14.589,0.181,14.589,0.181s2.565-34.211-23.401-33.765
		c-18.579,0.316-29.255,19.645-28.407,36.087c2.146,41.628,42.092,29.958,41.668,52.992c-0.4,21.567-26.724,31.151-25.766,4.706
		C338.506,197.973,335.408,198.059,328.737,198.334z"/>
	<path fill="#EE2631" d="M336.744,192.163C336.749,209.748,344,232.83,364.618,232c17.861-0.714,36.329-16.908,36.329-46.212
		c0-34.158-42.04-28.621-45.312-49.741c-2.093-13.563,17.378-14.637,18.86-4.448c4.377,0.331,14.594,0.176,14.594,0.176
		s2.565-34.211-23.401-33.766c-18.579,0.317-29.255,19.65-28.408,36.093c2.146,41.627,42.092,29.968,41.664,52.992
		c-0.396,21.567-26.719,31.151-25.762,4.706C346.513,191.8,343.417,191.885,336.744,192.163"/>
	<path fill="none" stroke="#231F20" stroke-width="2.8582" stroke-linecap="round" stroke-linejoin="round" d="M336.744,192.163
		C336.749,209.748,344,232.83,364.618,232c17.861-0.714,36.329-16.908,36.329-46.212c0-34.158-42.04-28.621-45.312-49.741
		c-2.093-13.563,17.378-14.637,18.86-4.448c4.377,0.331,14.594,0.176,14.594,0.176s2.565-34.211-23.401-33.766
		c-18.579,0.317-29.255,19.65-28.408,36.093c2.146,41.627,42.092,29.968,41.664,52.992c-0.396,21.567-26.719,31.151-25.762,4.706
		C346.513,191.8,343.417,191.885,336.744,192.163z"/>
	<path d="M319.354,138.105c-0.712,35.023-16.378,33.69-16.378,33.69s11.139-27.374-0.06-33.69v-29.298h16.438
		C319.354,108.808,319.47,132.39,319.354,138.105"/>
	<path fill="none" stroke="#231F20" stroke-width="2.8582" stroke-linejoin="round" d="M319.354,138.105
		c-0.712,35.023-16.378,33.69-16.378,33.69s11.139-27.374-0.06-33.69v-29.298h16.438C319.354,108.808,319.47,132.39,319.354,138.105
		z"/>
	<path fill="#EE2631" d="M327.811,129.096c-0.712,35.021-16.676,37.284-16.676,37.284s10.243-30.494-0.953-36.805
		c0-5.482,0.298-28.529,0.298-28.529l17.331-0.057C327.811,100.989,327.927,123.38,327.811,129.096"/>
	<path fill="none" stroke="#231F20" stroke-width="2.8582" stroke-linejoin="round" d="M327.811,129.096
		c-0.712,35.021-16.676,37.284-16.676,37.284s10.243-30.494-0.953-36.805c0-5.482,0.298-28.529,0.298-28.529l17.331-0.057
		C327.811,100.989,327.927,123.38,327.811,129.096z"/>
	<path d="M226.558,237.326l1.074-136.67c0,0,39.932-1.97,41.272-1.429c27.333,11.077,21.972,65.205,3.213,66.1
		c9.112,2.506,33.825,40.915,4.468,71.104C274.982,236.43,226.558,237.326,226.558,237.326 M246.57,209.272
		c0,0,12.868,0.361,16.257-0.354c13.465-9.384,5.54-34.123-16.257-24.653C246.521,189.2,246.57,209.272,246.57,209.272
		 M247.404,149.132c0,0,8.633,0,12.862-0.238c14.652-3.815,2.618-32.28-12.5-20.965
		C247.716,132.866,247.404,149.132,247.404,149.132"/>
	<path fill="none" stroke="#000000" stroke-width="2.8582" stroke-linecap="round" stroke-linejoin="round" d="M226.558,237.326
		l1.074-136.67c0,0,39.932-1.97,41.272-1.429c27.333,11.077,21.972,65.205,3.213,66.1c9.112,2.506,33.825,40.915,4.468,71.104
		C274.982,236.43,226.558,237.326,226.558,237.326z M246.57,209.272c0,0,12.868,0.361,16.257-0.354
		c13.465-9.384,5.54-34.123-16.257-24.653C246.521,189.2,246.57,209.272,246.57,209.272z M247.404,149.132c0,0,8.633,0,12.862-0.238
		c14.652-3.815,2.618-32.28-12.5-20.965C247.716,132.866,247.404,149.132,247.404,149.132z"/>
	<path fill="#EE2631" d="M234.903,232.182l1.074-136.673c0,0,39.932-1.97,41.272-1.429c27.333,11.077,21.972,65.207,3.215,66.104
		c9.114,2.505,33.823,40.915,4.465,71.104C283.328,231.287,234.903,232.182,234.903,232.182 M254.92,204.137
		c0,0,12.863,0.352,16.252-0.363c13.467-9.383,5.542-34.122-16.252-24.653C254.868,184.055,254.92,204.137,254.92,204.137
		 M255.749,143.985c0,0,8.638,0,12.863-0.238c14.651-3.815,2.62-32.28-12.501-20.965
		C256.061,127.719,255.749,143.985,255.749,143.985"/>
	<path fill="none" stroke="#000000" stroke-width="2.8582" stroke-linecap="round" stroke-linejoin="round" d="M234.903,232.182
		l1.074-136.673c0,0,39.932-1.97,41.272-1.429c27.333,11.077,21.972,65.207,3.215,66.104c9.114,2.505,33.823,40.915,4.465,71.104
		C283.328,231.287,234.903,232.182,234.903,232.182z M254.92,204.137c0,0,12.863,0.352,16.252-0.363
		c13.467-9.383,5.542-34.122-16.252-24.653C254.868,184.055,254.92,204.137,254.92,204.137z M255.749,143.985
		c0,0,8.638,0,12.863-0.238c14.651-3.815,2.62-32.28-12.501-20.965C256.061,127.719,255.749,143.985,255.749,143.985z"/>
	<path d="M215.355,166.184c0,40.344-16.345,70.933-38.055,70.933c-21.703,0-41.809-29.513-41.809-69.866
		c0-40.357,16.886-67.36,38.591-67.36C195.791,99.891,215.355,125.819,215.355,166.184 M174.443,123.83
		c-13.023,0-16.262,22.065-16.262,46.289c0,24.196,4.844,44.487,17.872,44.487c13.022,0,16.256-19.386,16.256-43.592
		C192.309,146.789,187.465,123.83,174.443,123.83"/>
	<path fill="none" stroke="#231F20" stroke-width="2.8582" d="M215.355,166.184c0,40.344-16.345,70.933-38.055,70.933
		c-21.703,0-41.809-29.513-41.809-69.866c0-40.357,16.886-67.36,38.591-67.36C195.791,99.891,215.355,125.819,215.355,166.184z
		 M174.443,123.83c-13.023,0-16.262,22.065-16.262,46.289c0,24.196,4.844,44.487,17.872,44.487
		c13.022,0,16.256-19.386,16.256-43.592C192.309,146.789,187.465,123.83,174.443,123.83z"/>
	<path fill="#EE2631" d="M223.829,161.43c0,40.344-16.345,70.933-38.055,70.933c-21.703,0-41.808-29.512-41.808-69.856
		c0-40.353,16.885-67.359,38.59-67.359C204.265,95.147,223.829,121.08,223.829,161.43 M182.916,119.091
		c-13.022,0-16.261,22.061-16.261,46.274c0,24.207,4.844,44.487,17.871,44.487c13.022,0,16.257-19.385,16.257-43.592
		C200.783,142.044,195.938,119.091,182.916,119.091"/>
	<path fill="none" stroke="#231F20" stroke-width="2.8582" d="M223.829,161.43c0,40.344-16.345,70.933-38.055,70.933
		c-21.703,0-41.808-29.512-41.808-69.856c0-40.353,16.885-67.359,38.59-67.359C204.265,95.147,223.829,121.08,223.829,161.43z
		 M182.916,119.091c-13.022,0-16.261,22.061-16.261,46.274c0,24.207,4.844,44.487,17.871,44.487
		c13.022,0,16.257-19.385,16.257-43.592C200.783,142.044,195.938,119.091,182.916,119.091z"/>
	<path d="M46.002,242.003l7.794-161.811c0,0,47.672-2.076,49.311-1.429c35.747,14.145,20.486,71.104,7.976,75.279
		c12.86,2.853,27.826,74.862-4.766,88.361C100.961,242.404,46.002,242.003,46.002,242.003 M80.711,200.231
		c36.688,1.076,16.5-33.395-0.238-24.055C80.418,182.198,80.637,194.334,80.711,200.231 M77.497,134.388c0,0,9.95,0.038,15.125,0
		c16.081-4.411,11.198-28.227-15.125-20.129C77.439,120.277,77.497,134.388,77.497,134.388"/>
	<path fill="none" stroke="#000000" stroke-width="2.8582" stroke-linecap="square" stroke-linejoin="round" d="M46.002,242.003
		l7.794-161.811c0,0,47.672-2.076,49.311-1.429c35.747,14.145,20.486,71.104,7.976,75.279c12.86,2.853,27.826,74.862-4.766,88.361
		C100.961,242.404,46.002,242.003,46.002,242.003z M80.711,200.231c36.688,1.076,16.5-33.395-0.238-24.055
		C80.418,182.198,80.637,194.334,80.711,200.231z M77.497,134.388c0,0,9.95,0.038,15.125,0
		c16.081-4.411,11.198-28.227-15.125-20.129C77.439,120.277,77.497,134.388,77.497,134.388z"/>
	<path fill="#EE2631" d="M59.322,238.136l1.214-162.64c0,0,47.672-2.077,49.311-1.429c35.747,14.146,20.483,71.104,7.973,75.278
		c12.863,2.854,34.188,58.001-4.766,88.37C107.702,237.716,59.322,238.136,59.322,238.136 M87.449,195.563
		c36.683,1.067,16.502-33.413-0.238-24.063C87.158,177.51,87.377,189.647,87.449,195.563 M84.236,129.691c0,0,9.95,0.039,15.125,0
		c16.081-4.41,11.198-28.226-15.125-20.129C84.181,115.581,84.236,129.691,84.236,129.691"/>
	<path fill="none" stroke="#000000" stroke-width="2.8582" stroke-linecap="square" stroke-linejoin="round" d="M59.322,238.136
		l1.214-162.64c0,0,47.672-2.077,49.311-1.429c35.747,14.146,20.483,71.104,7.973,75.278c12.863,2.854,34.188,58.001-4.766,88.37
		C107.702,237.716,59.322,238.136,59.322,238.136z M87.449,195.563c36.683,1.067,16.502-33.413-0.238-24.063
		C87.158,177.51,87.377,189.647,87.449,195.563z M84.236,129.691c0,0,9.95,0.039,15.125,0c16.081-4.41,11.198-28.226-15.125-20.129
		C84.181,115.581,84.236,129.691,84.236,129.691z"/>
</g>
</svg>
